<svg width="22" height="20" viewBox="0 0 22 20" fill="none" xmlns="http://www.w3.org/2000/svg">
<path d="M1.83326 8.7502C1.83359 7.40091 2.31423 6.08796 3.20333 5.00757C4.09244 3.92717 5.34227 3.13736 6.76602 2.75618C8.18977 2.375 9.71099 2.42291 11.1023 2.89277C12.4936 3.36262 13.6803 4.22918 14.485 5.36293C15.2898 6.49667 15.6693 7.83672 15.5669 9.18279C15.4645 10.5289 14.8857 11.8087 13.9169 12.8309C12.9482 13.8532 11.6416 14.563 10.1924 14.8542C8.74314 15.1455 7.22915 15.0026 5.87667 14.4469C4.72351 14.6885 3.48143 14.8969 2.91034 14.9902C2.7644 15.0139 2.61429 15.0049 2.47301 14.9641C2.33173 14.9232 2.20351 14.8517 2.09945 14.7557C1.99538 14.6597 1.9186 14.5421 1.87574 14.4131C1.83287 14.2841 1.82521 14.1475 1.85343 14.0152C1.96159 13.5069 2.20176 12.4169 2.47768 11.396C2.05186 10.5678 1.83185 9.66445 1.83326 8.7502V8.7502ZM7.46526 5.25603C7.06009 5.4527 6.74109 5.75853 6.50001 6.16436C6.4211 6.30934 6.4071 6.47649 6.46094 6.63066C6.51479 6.78483 6.63228 6.91402 6.78873 6.99107C6.94518 7.06812 7.1284 7.08703 7.29987 7.04382C7.47133 7.00061 7.61769 6.89864 7.70818 6.75936C7.84293 6.53436 7.98134 6.4227 8.11334 6.35936C8.25084 6.29186 8.43784 6.25103 8.70826 6.25103C8.91359 6.25103 9.15468 6.31686 9.33159 6.44936C9.48834 6.56603 9.62493 6.7527 9.62493 7.08353C9.62493 7.24603 9.55618 7.32103 9.08593 7.65686C8.67343 7.95186 8.02076 8.4302 8.02076 9.3752C8.02076 9.54096 8.09319 9.69993 8.22212 9.81714C8.35105 9.93435 8.52592 10.0002 8.70826 10.0002C8.89059 10.0002 9.06546 9.93435 9.19439 9.81714C9.32333 9.69993 9.39576 9.54096 9.39576 9.3752C9.39576 9.06686 9.54609 8.9177 9.93476 8.63936L10.0127 8.5852C10.3674 8.33686 10.9999 7.89603 10.9999 7.08353C10.9999 6.37686 10.6782 5.8352 10.2043 5.48186C9.78013 5.17178 9.25252 5.0022 8.70826 5.00103C8.29118 5.00103 7.86309 5.0627 7.46526 5.25603ZM9.62493 11.6669C9.62493 11.4458 9.52835 11.2339 9.35644 11.0776C9.18453 10.9213 8.95137 10.8335 8.70826 10.8335C8.46514 10.8335 8.23199 10.9213 8.06008 11.0776C7.88817 11.2339 7.79159 11.4458 7.79159 11.6669C7.79159 11.8879 7.88817 12.0998 8.06008 12.2561C8.23199 12.4124 8.46514 12.5002 8.70826 12.5002C8.95137 12.5002 9.18453 12.4124 9.35644 12.2561C9.52835 12.0998 9.62493 11.8879 9.62493 11.6669ZM8.61659 15.8335C9.88673 16.907 11.5574 17.5026 13.2916 17.5002C14.2681 17.5014 15.2335 17.3127 16.1232 16.9469C17.2782 17.1885 18.5258 17.3969 19.1005 17.4885C19.2467 17.512 19.397 17.5027 19.5383 17.4614C19.6797 17.4201 19.8078 17.3482 19.9117 17.2517C20.0155 17.1553 20.0919 17.0372 20.1343 16.9079C20.1766 16.7785 20.1836 16.6417 20.1547 16.5094C19.9645 15.6342 19.7536 14.7629 19.5222 13.896C19.9298 13.1027 20.1495 12.2403 20.1672 11.3649C20.1848 10.4894 20 9.6203 19.6247 8.81388C19.2494 8.00747 18.692 7.28171 17.9885 6.6836C17.2851 6.08549 16.4513 5.62838 15.5411 5.34186C16.1963 6.42685 16.5274 7.64898 16.5013 8.88649C16.4752 10.124 16.0928 11.3337 15.3923 12.3951C14.6919 13.4564 13.6977 14.3324 12.5088 14.9357C11.32 15.539 9.97801 15.8485 8.61659 15.8335V15.8335Z" fill="#1F1F1F"/>
</svg>
