<svg width="22" height="20" viewBox="0 0 22 20" fill="none" xmlns="http://www.w3.org/2000/svg">
<path d="M1.83332 8.7502C1.83365 7.40091 2.31429 6.08796 3.20339 5.00757C4.0925 3.92717 5.34233 3.13736 6.76608 2.75618C8.18983 2.375 9.71105 2.42291 11.1024 2.89277C12.4937 3.36262 13.6804 4.22918 14.4851 5.36293C15.2898 6.49667 15.6693 7.83672 15.5669 9.18279C15.4645 10.5289 14.8857 11.8087 13.917 12.8309C12.9483 13.8532 11.6416 14.563 10.1924 14.8542C8.7432 15.1455 7.22921 15.0026 5.87674 14.4469C4.72357 14.6885 3.48149 14.8969 2.9104 14.9902C2.76446 15.0139 2.61435 15.0049 2.47307 14.9641C2.33179 14.9232 2.20357 14.8517 2.09951 14.7557C1.99544 14.6597 1.91866 14.5421 1.8758 14.4131C1.83293 14.2841 1.82527 14.1475 1.85349 14.0152C1.96165 13.5069 2.20182 12.4169 2.47774 11.396C2.05193 10.5678 1.83191 9.66445 1.83332 8.7502ZM7.46532 5.25603C7.06015 5.4527 6.74115 5.75853 6.50007 6.16436C6.42116 6.30934 6.40716 6.47649 6.461 6.63066C6.51485 6.78483 6.63234 6.91402 6.78879 6.99107C6.94525 7.06812 7.12846 7.08703 7.29993 7.04382C7.47139 7.00061 7.61775 6.89864 7.70824 6.75936C7.84299 6.53436 7.9814 6.4227 8.1134 6.35936C8.2509 6.29186 8.4379 6.25103 8.70832 6.25103C8.91365 6.25103 9.15474 6.31686 9.33165 6.44936C9.4884 6.56603 9.62499 6.7527 9.62499 7.08353C9.62499 7.24603 9.55624 7.32103 9.08599 7.65686C8.67349 7.95186 8.02082 8.4302 8.02082 9.3752C8.02082 9.54096 8.09325 9.69993 8.22218 9.81714C8.35112 9.93435 8.52598 10.0002 8.70832 10.0002C8.89066 10.0002 9.06552 9.93435 9.19446 9.81714C9.32339 9.69993 9.39582 9.54096 9.39582 9.3752C9.39582 9.06686 9.54615 8.9177 9.93482 8.63936L10.0127 8.5852C10.3675 8.33686 11 7.89603 11 7.08353C11 6.37686 10.6782 5.8352 10.2043 5.48186C9.78019 5.17178 9.25258 5.0022 8.70832 5.00103C8.29124 5.00103 7.86315 5.0627 7.46532 5.25603ZM9.62499 11.6669C9.62499 11.4458 9.52841 11.2339 9.3565 11.0776C9.18459 10.9213 8.95143 10.8335 8.70832 10.8335C8.4652 10.8335 8.23205 10.9213 8.06014 11.0776C7.88823 11.2339 7.79165 11.4458 7.79165 11.6669C7.79165 11.8879 7.88823 12.0998 8.06014 12.2561C8.23205 12.4124 8.4652 12.5002 8.70832 12.5002C8.95143 12.5002 9.18459 12.4124 9.3565 12.2561C9.52841 12.0998 9.62499 11.8879 9.62499 11.6669ZM8.61665 15.8335C9.88679 16.907 11.5575 17.5026 13.2917 17.5002C14.2681 17.5014 15.2336 17.3127 16.1232 16.9469C17.2782 17.1885 18.5258 17.3969 19.1006 17.4885C19.2468 17.512 19.3971 17.5027 19.5384 17.4614C19.6798 17.4201 19.8079 17.3482 19.9117 17.2517C20.0156 17.1553 20.092 17.0372 20.1343 16.9079C20.1767 16.7785 20.1837 16.6417 20.1547 16.5094C19.9646 15.6342 19.7537 14.7629 19.5222 13.896C19.9298 13.1027 20.1496 12.2403 20.1672 11.3649C20.1849 10.4894 20.0001 9.6203 19.6248 8.81388C19.2495 8.00747 18.6921 7.28171 17.9886 6.6836C17.2851 6.08549 16.4513 5.62838 15.5412 5.34186C16.1964 6.42685 16.5274 7.64898 16.5013 8.88649C16.4752 10.124 16.0929 11.3337 15.3924 12.3951C14.6919 13.4564 13.6977 14.3324 12.5089 14.9357C11.32 15.539 9.97807 15.8485 8.61665 15.8335Z" fill="white"/>
</svg>
