<svg width="17" height="16" viewBox="0 0 17 16" fill="none" xmlns="http://www.w3.org/2000/svg">
<path d="M6.74667 3.67333C6.62667 4.1 6.56667 4.54667 6.56667 5C6.56667 7.72 8.78 9.93333 11.5 9.93333C11.9533 9.93333 12.4 9.87333 12.8267 9.75333C12.1333 11.46 10.4533 12.6667 8.5 12.6667C5.92667 12.6667 3.83333 10.5733 3.83333 8C3.83333 6.04667 5.04 4.36667 6.74667 3.67333ZM8.5 2C5.18667 2 2.5 4.68667 2.5 8C2.5 11.3133 5.18667 14 8.5 14C11.8133 14 14.5 11.3133 14.5 8C14.5 7.69333 14.4733 7.38667 14.4333 7.09333C13.78 8.00667 12.7133 8.6 11.5 8.6C9.51333 8.6 7.9 6.98667 7.9 5C7.9 3.79333 8.49333 2.72 9.40667 2.06667C9.11333 2.02667 8.80667 2 8.5 2Z" fill="#808080"/>
</svg>
