<svg width="17" height="16" viewBox="0 0 17 16" fill="none" xmlns="http://www.w3.org/2000/svg">
<path d="M8.33333 6.00002C9.43333 6.00002 10.3333 6.90002 10.3333 8.00002C10.3333 9.10002 9.43333 10 8.33333 10C7.23333 10 6.33333 9.10002 6.33333 8.00002C6.33333 6.90002 7.23333 6.00002 8.33333 6.00002ZM8.33333 4.66669C6.49333 4.66669 5 6.16002 5 8.00002C5 9.84002 6.49333 11.3334 8.33333 11.3334C10.1733 11.3334 11.6667 9.84002 11.6667 8.00002C11.6667 6.16002 10.1733 4.66669 8.33333 4.66669ZM1.66667 8.66669H3C3.36667 8.66669 3.66667 8.36669 3.66667 8.00002C3.66667 7.63335 3.36667 7.33335 3 7.33335H1.66667C1.3 7.33335 1 7.63335 1 8.00002C1 8.36669 1.3 8.66669 1.66667 8.66669ZM13.6667 8.66669H15C15.3667 8.66669 15.6667 8.36669 15.6667 8.00002C15.6667 7.63335 15.3667 7.33335 15 7.33335H13.6667C13.3 7.33335 13 7.63335 13 8.00002C13 8.36669 13.3 8.66669 13.6667 8.66669ZM7.66667 1.33335V2.66669C7.66667 3.03335 7.96667 3.33335 8.33333 3.33335C8.7 3.33335 9 3.03335 9 2.66669V1.33335C9 0.966687 8.7 0.666687 8.33333 0.666687C7.96667 0.666687 7.66667 0.966687 7.66667 1.33335ZM7.66667 13.3334V14.6667C7.66667 15.0334 7.96667 15.3334 8.33333 15.3334C8.7 15.3334 9 15.0334 9 14.6667V13.3334C9 12.9667 8.7 12.6667 8.33333 12.6667C7.96667 12.6667 7.66667 12.9667 7.66667 13.3334ZM4.32667 3.05335C4.06667 2.79335 3.64 2.79335 3.38667 3.05335C3.12667 3.31335 3.12667 3.74002 3.38667 3.99335L4.09333 4.70002C4.35333 4.96002 4.78 4.96002 5.03333 4.70002C5.28667 4.44002 5.29333 4.01335 5.03333 3.76002L4.32667 3.05335ZM12.5733 11.3C12.3133 11.04 11.8867 11.04 11.6333 11.3C11.3733 11.56 11.3733 11.9867 11.6333 12.24L12.34 12.9467C12.6 13.2067 13.0267 13.2067 13.28 12.9467C13.54 12.6867 13.54 12.26 13.28 12.0067L12.5733 11.3ZM13.28 3.99335C13.54 3.73335 13.54 3.30669 13.28 3.05335C13.02 2.79335 12.5933 2.79335 12.34 3.05335L11.6333 3.76002C11.3733 4.02002 11.3733 4.44669 11.6333 4.70002C11.8933 4.95335 12.32 4.96002 12.5733 4.70002L13.28 3.99335ZM5.03333 12.24C5.29333 11.98 5.29333 11.5534 5.03333 11.3C4.77333 11.04 4.34667 11.04 4.09333 11.3L3.38667 12.0067C3.12667 12.2667 3.12667 12.6934 3.38667 12.9467C3.64667 13.2 4.07333 13.2067 4.32667 12.9467L5.03333 12.24Z" fill="#1F1F1F"/>
</svg>
